<svg xmlns="http://www.w3.org/2000/svg" xmlns:xlink="http://www.w3.org/1999/xlink" width="500" zoomAndPan="magnify" viewBox="0 0 375 374.999991" height="500" preserveAspectRatio="xMidYMid meet" version="1.0"><defs><clipPath id="7523bd3182"><path d="M 88 28 L 307.441406 28 L 307.441406 316 L 88 316 Z M 88 28 " clip-rule="nonzero"/></clipPath><clipPath id="ad8871951c"><path d="M 92 83.464844 L 234 83.464844 L 234 375 L 92 375 Z M 92 83.464844 " clip-rule="nonzero"/></clipPath><clipPath id="a3899d6346"><path d="M 67.5 279 L 170 279 L 170 303 L 67.5 303 Z M 67.5 279 " clip-rule="nonzero"/></clipPath></defs><rect x="-37.5" width="450" fill="#ffffff" y="-37.499999" height="449.999989" fill-opacity="1"/><rect x="-37.5" width="450" fill="#ffffff" y="-37.499999" height="449.999989" fill-opacity="1"/><rect x="-37.5" width="450" fill="#ffffff" y="-37.499999" height="449.999989" fill-opacity="1"/><path fill="#e17050" d="M 197.464844 149.175781 C 198.292969 148.078125 198.40625 146.667969 197.816406 144.945312 L 196.410156 142.710938 C 195.269531 140.945312 194.488281 139.574219 194.058594 138.59375 C 193.039062 136.324219 193.234375 134.226562 194.644531 132.308594 L 195 131.777344 C 198.449219 134.207031 202.640625 135.558594 207.574219 135.835938 C 210.238281 135.949219 213.980469 135.714844 218.804688 135.128906 C 219.195312 135.246094 219.566406 135.402344 219.917969 135.597656 C 219.683594 135.871094 219.46875 136.207031 219.273438 136.597656 C 218.726562 137.617188 218.605469 138.828125 218.917969 140.242188 C 219 140.359375 219.039062 140.476562 219.039062 140.59375 C 219.546875 142.433594 220.644531 144.414062 222.332031 146.53125 C 223.777344 148.882812 225.328125 151.707031 226.972656 154.992188 C 218.546875 157.265625 208.714844 155.328125 197.464844 149.175781 Z M 88.257812 45.960938 C 88.414062 42.984375 88.394531 40.75 88.199219 39.261719 L 84.316406 29.449219 C 84.4375 28.191406 83.867188 26.742188 82.613281 25.09375 L 82.554688 25.039062 C 80.558594 22.492188 79.773438 20.453125 80.203125 18.921875 C 80.246094 18.921875 80.261719 18.886719 80.261719 18.808594 C 81.671875 17.789062 83.28125 18.628906 85.085938 21.335938 C 85.90625 22.550781 86.554688 23.296875 87.023438 23.570312 C 87.730469 23.996094 88.492188 23.703125 89.3125 22.6875 C 89.3125 21.195312 88.667969 18.394531 87.375 14.28125 C 86.277344 10.675781 85.90625 7.832031 86.261719 5.757812 C 88.023438 4.582031 89.199219 5.132812 89.785156 7.40625 C 90.804688 10.695312 91.527344 12.519531 91.960938 12.871094 C 92.117188 9.578125 92.253906 7.011719 92.371094 5.171875 C 92.648438 2.117188 93.878906 0.390625 96.074219 0 C 96.191406 6.269531 97.1875 13.910156 99.070312 22.921875 C 99.148438 23.355469 99.289062 24.039062 99.484375 24.980469 C 98.777344 24.238281 98.128906 23.433594 97.542969 22.570312 C 93.703125 17.4375 90.960938 12.792969 89.3125 8.636719 L 88.960938 8.109375 C 88.726562 9.007812 88.785156 10.5 89.140625 12.578125 C 89.253906 13.632812 90.058594 16.261719 91.550781 20.453125 C 92.996094 24.566406 93.824219 27.132812 94.015625 28.152344 C 95.113281 34.851562 95.484375 39.8125 95.132812 43.023438 C 94.628906 46.746094 94.292969 50.980469 94.136719 55.71875 C 93.429688 54.308594 92.683594 52.960938 91.898438 51.664062 C 90.722656 49.667969 89.511719 47.765625 88.257812 45.960938 Z M 288.515625 41.671875 C 288.589844 41.121094 288.6875 40.632812 288.808594 40.203125 C 290.019531 32.953125 290.589844 26.839844 290.511719 21.863281 C 292.234375 22.101562 293.273438 23.453125 293.625 25.921875 C 293.746094 27.015625 293.902344 29.035156 294.097656 31.972656 C 294.449219 31.621094 294.980469 30.132812 295.683594 27.507812 C 296.113281 25.707031 297.039062 25.25 298.445312 26.15625 C 298.800781 27.839844 298.601562 30.089844 297.859375 32.914062 C 296.953125 36.207031 296.484375 38.457031 296.449219 39.675781 C 297.109375 40.496094 297.738281 40.710938 298.328125 40.320312 C 298.523438 40.203125 298.742188 40.003906 298.976562 39.734375 C 299.25 39.417969 299.542969 38.984375 299.855469 38.441406 C 301.226562 36.285156 302.464844 35.578125 303.558594 36.324219 C 303.558594 36.363281 303.558594 36.402344 303.558594 36.441406 C 303.125 37.886719 302.578125 39.496094 301.914062 41.257812 L 301.914062 41.378906 C 300.972656 42.671875 300.5625 43.824219 300.679688 44.84375 C 300.132812 46.453125 299.5625 48.078125 298.976562 49.726562 C 298.621094 50.703125 298.25 51.703125 297.859375 52.71875 C 297.738281 53.972656 297.800781 55.777344 298.035156 58.128906 C 297.09375 59.539062 296.175781 61.070312 295.273438 62.710938 C 294.800781 63.574219 294.234375 64.65625 293.566406 65.945312 C 293.253906 62.105469 292.898438 58.8125 292.507812 56.074219 C 292.113281 53.488281 292.253906 49.527344 292.921875 44.199219 C 293.039062 43.453125 293.625 41.359375 294.6875 37.910156 C 295.707031 34.578125 296.253906 32.484375 296.328125 31.621094 C 296.5625 29.933594 296.5625 28.742188 296.328125 28.035156 L 296.097656 28.507812 C 294.957031 31.800781 292.921875 35.539062 289.984375 39.734375 C 289.433594 40.554688 288.945312 41.203125 288.515625 41.671875 " fill-opacity="1" fill-rule="evenodd"/><g clip-path="url(#7523bd3182)"><path fill="#ee8960" d="M 161.375 297.292969 L 162.082031 297.589844 L 161.730469 297.527344 Z M 157.730469 298.703125 C 158.238281 298.859375 158.730469 299.015625 159.199219 299.175781 C 159.632812 299.292969 160.0625 299.410156 160.496094 299.53125 C 163.042969 300.273438 165.078125 300.84375 166.605469 301.234375 C 166.683594 301.234375 166.785156 301.253906 166.898438 301.292969 C 166.941406 301.292969 166.976562 301.3125 167.019531 301.347656 L 166.136719 304.996094 L 160.140625 302.703125 L 160.140625 302.644531 C 159.949219 302.332031 159.730469 302.019531 159.492188 301.703125 L 158.730469 300.648438 C 158.300781 299.980469 157.96875 299.332031 157.730469 298.703125 Z M 88.492188 309.992188 C 90.53125 310.070312 91.804688 310.128906 92.3125 310.164062 L 100.714844 310.40625 C 101.148438 310.441406 103.910156 310.992188 109.003906 312.046875 L 110.121094 312.28125 C 109.0625 313.34375 108.199219 314.539062 107.535156 315.867188 L 106.183594 314.925781 C 105.242188 314.65625 100.03125 313.65625 90.550781 311.929688 C 90.195312 311.617188 89.902344 311.304688 89.667969 310.992188 L 88.960938 310.34375 L 88.550781 310.050781 Z M 228.5 114.675781 C 227.09375 112.828125 225.917969 111.304688 224.976562 110.089844 C 223.367188 108.089844 222.390625 106.992188 222.035156 106.796875 C 214.160156 102.445312 205.910156 99.472656 197.289062 97.863281 C 197.410156 99.664062 197.464844 101.175781 197.464844 102.386719 C 197.660156 108.695312 197.445312 114.359375 196.820312 119.378906 L 194.058594 129.542969 C 192.488281 124.921875 191.726562 119.0625 191.765625 111.972656 C 191.921875 107.148438 192 103.742188 192 101.746094 C 192.035156 99.863281 192.035156 98.039062 192 96.277344 L 191.585938 91.753906 C 208.355469 90.734375 219.488281 94.398438 224.976562 102.742188 C 225.132812 102.9375 225.269531 103.15625 225.382812 103.386719 C 225.621094 103.976562 225.761719 104.308594 225.796875 104.390625 C 225.875 104.425781 225.917969 104.484375 225.917969 104.5625 L 225.917969 104.683594 L 225.972656 104.917969 C 226.757812 106.757812 227.363281 108.714844 227.792969 110.796875 L 227.855469 110.96875 C 227.890625 111.011719 227.890625 111.066406 227.855469 111.148438 C 228.128906 112.207031 228.339844 113.378906 228.5 114.675781 Z M 256.828125 110.796875 C 258.476562 103.664062 263.019531 94.804688 270.46875 84.226562 C 274.738281 78.113281 277.582031 73.980469 278.992188 71.824219 C 281.929688 67.042969 284.144531 62.554688 285.628906 58.363281 C 285.628906 58.167969 286.59375 52.605469 288.515625 41.671875 C 288.945312 41.203125 289.433594 40.554688 289.984375 39.734375 C 292.921875 35.539062 294.957031 31.800781 296.097656 28.507812 L 296.328125 28.035156 C 296.5625 28.742188 296.5625 29.933594 296.328125 31.621094 C 296.253906 32.484375 295.707031 34.578125 294.6875 37.910156 C 293.625 41.359375 293.039062 43.453125 292.921875 44.199219 C 292.253906 49.527344 292.113281 53.488281 292.507812 56.074219 C 292.898438 58.8125 293.253906 62.105469 293.566406 65.945312 C 291.488281 70.296875 289.394531 75.507812 287.277344 81.582031 C 282.65625 94.589844 280.304688 101.175781 280.226562 101.332031 C 277.363281 108.617188 274.269531 114.652344 270.9375 119.433594 C 270 117.476562 268.449219 115.871094 266.292969 114.617188 C 265.902344 114.300781 265.414062 114.027344 264.824219 113.792969 C 264.316406 113.476562 261.652344 112.480469 256.828125 110.796875 Z M 300.679688 44.84375 C 300.757812 45.316406 300.972656 45.746094 301.324219 46.140625 C 301.714844 47.039062 302.796875 47.101562 304.558594 46.316406 C 306.203125 45.648438 307.167969 45.960938 307.4375 47.257812 C 304.34375 49.882812 301.519531 53.039062 298.976562 56.71875 C 298.664062 57.1875 298.351562 57.660156 298.035156 58.128906 C 297.800781 55.777344 297.738281 53.972656 297.859375 52.71875 C 298.25 51.703125 298.621094 50.703125 298.976562 49.726562 C 299.5625 48.078125 300.132812 46.453125 300.679688 44.84375 Z M 301.914062 41.257812 C 302.578125 39.496094 303.125 37.886719 303.558594 36.441406 C 303.988281 37.578125 303.441406 39.183594 301.914062 41.257812 " fill-opacity="1" fill-rule="evenodd"/></g><path fill="#f4f2fa" d="M 266.292969 114.617188 C 265.664062 115.949219 264.589844 118.101562 263.0625 121.082031 C 262.121094 122.960938 260.339844 126.484375 257.710938 131.660156 C 256.535156 133.972656 255.203125 136.597656 253.714844 139.535156 C 250.8125 145.296875 246.992188 151.566406 242.253906 158.34375 L 241.433594 159.460938 C 241.355469 159.382812 241.273438 159.324219 241.199219 159.285156 C 239.277344 156.703125 237.140625 155.035156 234.789062 154.289062 L 237.199219 145.414062 C 240.257812 140.910156 242.960938 136.632812 245.3125 132.601562 C 245.507812 132.285156 245.703125 131.972656 245.902344 131.660156 C 250.128906 124.488281 253.777344 117.53125 256.828125 110.796875 C 261.652344 112.480469 264.316406 113.476562 264.824219 113.792969 C 265.414062 114.027344 265.902344 114.300781 266.292969 114.617188 " fill-opacity="1" fill-rule="evenodd"/><g clip-path="url(#ad8871951c)"><path fill="#19304d" d="M 176.539062 126.484375 C 177.011719 127.195312 177.445312 127.78125 177.832031 128.25 L 177.773438 129.132812 C 177.738281 129.605469 177.503906 130.113281 177.070312 130.660156 L 177.480469 131.074219 C 177.125 133.191406 176.246094 134.972656 174.835938 136.421875 C 169.191406 131.523438 163.296875 126.269531 157.140625 120.667969 C 152.949219 116.828125 148.816406 112.914062 144.742188 108.914062 C 144.425781 108.445312 143.976562 107.738281 143.390625 106.796875 C 148.011719 103.742188 153.734375 102.25 160.554688 102.332031 C 163.53125 102.523438 166.136719 103.640625 168.371094 105.679688 C 168.921875 106.152344 169.371094 106.578125 169.722656 106.976562 C 169.328125 107.246094 168.980469 107.519531 168.664062 107.796875 C 166.46875 109.792969 165.292969 112.285156 165.136719 115.261719 C 165.023438 118.238281 165.941406 120.824219 167.902344 123.019531 C 169.898438 125.214844 172.386719 126.371094 175.363281 126.484375 C 175.757812 126.527344 176.148438 126.527344 176.539062 126.484375 Z M 194.058594 129.542969 L 194.46875 130.601562 L 194.644531 132.308594 C 193.234375 134.226562 193.039062 136.324219 194.058594 138.59375 C 194.488281 139.574219 195.269531 140.945312 196.410156 142.710938 L 197.054688 144.53125 L 196.234375 144.0625 C 193.800781 142.691406 191.429688 141.125 189.121094 139.363281 C 187.667969 138.1875 186.847656 137.496094 186.652344 137.304688 C 186.535156 133.148438 186.613281 127.703125 186.882812 120.960938 C 187.003906 119.042969 186.984375 115.984375 186.828125 111.792969 C 186.667969 107.640625 186.652344 104.582031 186.769531 102.625 C 187.003906 97.097656 184.964844 93.257812 180.652344 91.105469 C 180.226562 90.90625 179.734375 90.65625 179.183594 90.339844 L 180.066406 88.988281 C 181.671875 86.792969 183.496094 84.992188 185.535156 83.578125 L 186.828125 84.167969 C 189.335938 85.34375 191.570312 86.050781 193.527344 86.285156 C 194.074219 86.324219 195.527344 86.285156 197.878906 86.167969 C 200.265625 85.972656 201.734375 85.910156 202.285156 85.988281 C 211.882812 87.164062 219.449219 90.164062 224.976562 94.984375 C 226.738281 96.511719 228.304688 98.238281 229.675781 100.15625 C 231.867188 105.957031 231.597656 111.714844 228.855469 117.433594 C 228.773438 116.492188 228.65625 115.574219 228.5 114.675781 C 228.339844 113.378906 228.128906 112.207031 227.855469 111.148438 C 227.890625 111.066406 227.890625 111.011719 227.855469 110.96875 L 227.792969 110.796875 C 227.363281 108.714844 226.757812 106.757812 225.972656 104.917969 L 225.917969 104.683594 L 225.917969 104.5625 C 225.917969 104.484375 225.875 104.425781 225.796875 104.390625 C 225.761719 104.308594 225.621094 103.976562 225.382812 103.386719 C 225.269531 103.15625 225.132812 102.9375 224.976562 102.742188 C 219.488281 94.398438 208.355469 90.734375 191.585938 91.753906 L 192 96.277344 C 192.035156 98.039062 192.035156 99.863281 192 101.746094 C 192 103.742188 191.921875 107.148438 191.765625 111.972656 C 191.726562 119.0625 192.488281 124.921875 194.058594 129.542969 Z M 132.808594 120.726562 C 138.332031 127.230469 144.113281 133.597656 150.148438 139.832031 C 151.910156 141.628906 153.640625 143.476562 155.324219 145.355469 C 152.066406 148.097656 149.09375 152.019531 146.386719 157.109375 C 141.21875 166.867188 135.394531 174.15625 128.929688 178.976562 C 122.546875 183.757812 116.507812 186.695312 110.828125 187.792969 C 105.105469 188.890625 98.953125 189.027344 92.371094 188.203125 C 110.789062 179.269531 122.054688 164.636719 126.167969 144.296875 C 127.699219 136.617188 129.753906 129.191406 132.339844 122.023438 Z M 168.371094 295.121094 C 168.921875 292.574219 169.371094 290.164062 169.722656 287.890625 L 169.957031 286.773438 C 170.78125 281.484375 171.308594 276.507812 171.542969 271.84375 C 172.015625 263.300781 174.835938 255.933594 180.011719 249.746094 C 180.441406 249.667969 180.832031 249.667969 181.1875 249.746094 C 181.886719 249.902344 182.734375 250.429688 183.710938 251.332031 C 183.867188 251.371094 184.003906 251.464844 184.125 251.628906 C 185.335938 252.761719 186.121094 253.523438 186.476562 253.917969 C 186.554688 253.957031 186.632812 254.035156 186.710938 254.152344 C 188.238281 255.605469 189.769531 256.953125 191.292969 258.207031 C 191.726562 267.808594 192.332031 276.195312 193.117188 283.367188 C 192.058594 292.339844 190.0625 300.605469 187.125 308.167969 C 185.867188 311.304688 184.417969 314.382812 182.769531 317.398438 L 182.476562 317.925781 C 181.109375 320.398438 179.578125 322.820312 177.894531 325.214844 C 172.40625 332.933594 165.53125 339.636719 157.261719 345.316406 C 156.597656 339.554688 157.261719 335.300781 159.257812 332.5625 C 160.199219 328.054688 162.082031 320.375 164.902344 309.523438 L 166.136719 304.996094 L 167.019531 301.347656 L 167.429688 299.410156 Z M 107.535156 315.867188 L 155.671875 358.421875 C 162.378906 364.773438 170.289062 367.652344 179.421875 367.066406 C 175.230469 371.921875 171.410156 374.527344 167.960938 374.878906 C 162.160156 375.546875 157.226562 373.882812 153.148438 369.882812 C 148.488281 365.378906 144.332031 361.382812 140.683594 357.894531 C 127.675781 345.433594 116.472656 334.679688 107.066406 325.625 C 105.617188 322.371094 105.753906 319.121094 107.476562 315.867188 Z M 218.917969 300.171875 C 226.914062 290.066406 231.105469 280.429688 231.5 271.257812 C 232.324219 271.136719 233.066406 271 233.730469 270.84375 C 233.730469 271.316406 233.671875 271.90625 233.558594 272.609375 L 232.261719 281.128906 C 230.890625 289.59375 229.246094 298.039062 227.328125 306.464844 C 225.523438 314.574219 223.367188 322.527344 220.859375 330.328125 L 219.390625 334.851562 C 217.394531 340.730469 215.21875 346.550781 212.867188 352.3125 L 209.28125 360.894531 C 209.753906 365.277344 211.632812 368.613281 214.921875 370.886719 C 212.105469 369.589844 209.554688 367.628906 207.28125 365.007812 C 203.519531 360.734375 200.152344 356.523438 197.171875 352.371094 C 196.738281 351.664062 196.289062 351.035156 195.820312 350.488281 L 193 346.550781 C 194.722656 343.730469 195.917969 341.652344 196.582031 340.320312 L 198.640625 336.207031 L 206.226562 344.730469 L 204.757812 336.5 C 204.207031 333.246094 203.792969 330.054688 203.519531 326.917969 C 208.421875 317.824219 213.550781 308.910156 218.917969 300.171875 " fill-opacity="1" fill-rule="evenodd"/></g><path fill="#245190" d="M 229.675781 100.15625 C 228.304688 98.238281 226.738281 96.511719 224.976562 94.984375 C 219.449219 90.164062 211.882812 87.164062 202.285156 85.988281 C 201.734375 85.910156 200.265625 85.972656 197.878906 86.167969 C 195.527344 86.285156 194.074219 86.324219 193.527344 86.285156 C 191.570312 86.050781 189.335938 85.34375 186.828125 84.167969 L 185.535156 83.578125 C 188.785156 81.382812 192.527344 80.128906 196.761719 79.816406 C 203.109375 79.347656 209.417969 80.914062 215.6875 84.519531 C 219.449219 86.714844 222.546875 89.28125 224.976562 92.222656 C 226.578125 94.140625 227.914062 96.238281 228.96875 98.511719 C 229.246094 99.058594 229.480469 99.605469 229.675781 100.15625 Z M 143.390625 106.796875 C 141.667969 104.011719 139.257812 100.546875 136.160156 96.394531 C 143.09375 92.046875 150.597656 90.734375 158.671875 92.453125 C 165.101562 93.75 170.425781 96.453125 174.660156 100.570312 C 175.875 96.765625 177.382812 93.355469 179.183594 90.339844 C 179.734375 90.65625 180.226562 90.90625 180.652344 91.105469 C 184.964844 93.257812 187.003906 97.097656 186.769531 102.625 C 186.652344 104.582031 186.667969 107.640625 186.828125 111.792969 C 186.984375 115.984375 187.003906 119.042969 186.882812 120.960938 C 186.613281 127.703125 186.535156 133.148438 186.652344 137.304688 C 183.988281 135.070312 181.515625 132.640625 179.242188 130.011719 C 178.695312 130.601562 178.109375 130.953125 177.480469 131.074219 L 177.070312 130.660156 C 177.503906 130.113281 177.738281 129.605469 177.773438 129.132812 L 177.832031 128.25 C 177.445312 127.78125 177.011719 127.195312 176.539062 126.484375 L 175.777344 125.3125 C 173.035156 120.804688 171.878906 116.027344 172.308594 110.96875 L 172.71875 108.152344 C 172.835938 107.40625 173.035156 106.464844 173.304688 105.328125 C 172.050781 105.644531 170.859375 106.191406 169.722656 106.976562 C 169.371094 106.578125 168.921875 106.152344 168.371094 105.679688 C 166.136719 103.640625 163.53125 102.523438 160.554688 102.332031 C 153.734375 102.25 148.011719 103.742188 143.390625 106.796875 Z M 128.582031 115.613281 C 128.96875 116.042969 129.28125 116.457031 129.515625 116.847656 L 132.808594 120.726562 L 132.339844 122.023438 C 129.753906 129.191406 127.699219 136.617188 126.167969 144.296875 C 122.054688 164.636719 110.789062 179.269531 92.371094 188.203125 C 91.628906 187.929688 91 187.769531 90.488281 187.734375 C 83.710938 185.660156 79.320312 181.71875 77.324219 175.917969 C 75.992188 172.277344 75.699219 169.199219 76.441406 166.695312 C 77.03125 165.28125 77.929688 163.792969 79.148438 162.226562 C 81.734375 159.796875 84.613281 159.109375 87.785156 160.167969 C 91.273438 161.1875 92.839844 163.105469 92.488281 165.925781 C 91.941406 165.457031 91.101562 165.085938 89.960938 164.8125 C 86.121094 163.753906 83.886719 164.222656 83.261719 166.222656 C 83.027344 166.886719 83.460938 168.140625 84.550781 169.980469 C 85.613281 171.863281 86.554688 173.195312 87.375 173.980469 C 88.042969 174.683594 88.804688 175.214844 89.667969 175.566406 C 90.488281 175.917969 92.191406 176.058594 94.78125 175.980469 C 97.40625 175.859375 100.308594 173.292969 103.480469 168.277344 C 106.617188 163.261719 108.355469 159.832031 108.710938 157.992188 C 109.0625 156.03125 110.023438 151.292969 111.589844 143.769531 C 113.039062 135.855469 114.234375 130.152344 115.175781 126.664062 C 117.335938 119.726562 120.058594 113.8125 123.34375 108.914062 C 125.070312 111.382812 126.816406 113.613281 128.582031 115.613281 Z M 191.292969 258.207031 C 196.820312 262.675781 202.480469 266.0625 208.285156 268.378906 C 209.027344 268.648438 209.988281 268.984375 211.164062 269.375 C 214.886719 277.839844 217.46875 288.105469 218.917969 300.171875 C 213.550781 308.910156 208.421875 317.824219 203.519531 326.917969 C 203.792969 330.054688 204.207031 333.246094 204.757812 336.5 L 206.226562 344.730469 L 198.640625 336.207031 L 196.582031 340.320312 C 195.917969 341.652344 194.722656 343.730469 193 346.550781 C 191.195312 349.566406 188.570312 353.78125 185.121094 359.191406 C 183.164062 362.203125 181.265625 364.828125 179.421875 367.066406 C 170.289062 367.652344 162.378906 364.773438 155.671875 358.421875 L 107.535156 315.867188 C 108.199219 314.539062 109.0625 313.34375 110.121094 312.28125 C 110.550781 311.8125 110.964844 311.425781 111.355469 311.105469 L 111.414062 310.992188 L 112.589844 310.164062 C 112.710938 310.085938 112.824219 310.007812 112.945312 309.929688 C 113.375 309.660156 113.84375 309.386719 114.355469 309.109375 L 114.589844 309.050781 C 114.667969 309.007812 114.746094 308.988281 114.824219 308.988281 C 117.683594 310.949219 121.40625 312.828125 125.992188 314.632812 C 128.539062 315.613281 132.59375 317.082031 138.160156 319.042969 C 148.074219 322.726562 155.109375 327.230469 159.257812 332.5625 C 157.261719 335.300781 156.597656 339.554688 157.261719 345.316406 C 165.53125 339.636719 172.40625 332.933594 177.894531 325.214844 C 179.578125 322.820312 181.109375 320.398438 182.476562 317.925781 L 182.769531 317.398438 C 184.417969 314.382812 185.867188 311.304688 187.125 308.167969 C 190.0625 300.605469 192.058594 292.339844 193.117188 283.367188 C 192.332031 276.195312 191.726562 267.808594 191.292969 258.207031 Z M 247.542969 262.734375 C 248.253906 266.925781 248.523438 271.765625 248.367188 277.25 C 248.132812 284.734375 247.582031 292.613281 246.722656 300.878906 C 245.816406 309.265625 244.605469 316.730469 243.078125 323.277344 C 241.589844 329.542969 239.921875 336.207031 238.082031 343.261719 C 236.277344 349.996094 233.730469 357.1875 230.441406 364.828125 C 228.128906 370.117188 224.152344 372.746094 218.507812 372.707031 C 217.957031 372.511719 217.449219 372.296875 216.980469 372.0625 C 216.160156 371.707031 215.472656 371.3125 214.921875 370.886719 C 211.632812 368.613281 209.753906 365.277344 209.28125 360.894531 L 212.867188 352.3125 C 215.21875 346.550781 217.394531 340.730469 219.390625 334.851562 L 220.859375 330.328125 C 223.367188 322.527344 225.523438 314.574219 227.328125 306.464844 C 229.246094 298.039062 230.890625 289.59375 232.261719 281.128906 L 233.558594 272.609375 C 233.671875 271.90625 233.730469 271.316406 233.730469 270.84375 C 240.078125 269.433594 244.683594 266.730469 247.542969 262.734375 " fill-opacity="1" fill-rule="evenodd"/><path fill="#f03b6e" d="M 176.539062 126.484375 C 176.148438 126.527344 175.757812 126.527344 175.363281 126.484375 C 172.386719 126.371094 169.898438 125.214844 167.902344 123.019531 C 165.941406 120.824219 165.023438 118.238281 165.136719 115.261719 C 165.292969 112.285156 166.46875 109.792969 168.664062 107.796875 C 168.980469 107.519531 169.328125 107.246094 169.722656 106.976562 C 170.859375 106.191406 172.050781 105.644531 173.304688 105.328125 C 173.035156 106.464844 172.835938 107.40625 172.71875 108.152344 L 172.308594 110.96875 C 171.878906 116.027344 173.035156 120.804688 175.777344 125.3125 Z M 142.800781 284.890625 C 146.09375 286.894531 149.855469 288.773438 154.089844 290.535156 C 159.144531 292.613281 163.902344 294.140625 168.371094 295.121094 L 167.429688 299.410156 C 167.390625 299.410156 167.375 299.394531 167.375 299.351562 C 165.371094 298.648438 163.667969 298.078125 162.257812 297.648438 C 162.222656 297.648438 162.179688 297.628906 162.136719 297.589844 L 162.082031 297.589844 L 161.375 297.292969 C 161.339844 297.292969 161.28125 297.292969 161.203125 297.292969 L 159.964844 296.886719 C 159.414062 296.730469 159.023438 296.628906 158.789062 296.59375 L 157.730469 296.296875 L 157.617188 296.296875 C 157.496094 296.257812 157.359375 296.214844 157.203125 296.179688 C 157.203125 297 157.382812 297.839844 157.730469 298.703125 C 157.96875 299.332031 158.300781 299.980469 158.730469 300.648438 L 159.492188 301.703125 C 159.730469 302.019531 159.949219 302.332031 160.140625 302.644531 L 160.140625 302.703125 L 161.496094 304.347656 C 159.652344 304.035156 158.003906 302.859375 156.554688 300.820312 C 155.65625 299.644531 154.65625 297.824219 153.5625 295.355469 C 149.957031 293.550781 147.070312 291.398438 144.917969 288.890625 C 143.742188 287.519531 143.035156 286.1875 142.800781 284.890625 Z M 68.273438 296.351562 C 72.191406 297.804688 76.640625 299.039062 81.613281 300.058594 C 95.800781 302.996094 107.636719 302.800781 117.117188 299.472656 C 117.195312 300.09375 117.234375 300.742188 117.234375 301.410156 C 117.3125 305.210938 116.472656 307.40625 114.707031 307.992188 C 111.179688 308.582031 106.417969 308.382812 100.421875 307.40625 C 93.367188 306.1875 88.550781 305.582031 85.964844 305.582031 C 86.121094 306.207031 86.398438 306.878906 86.789062 307.582031 C 86.945312 307.898438 87.140625 308.191406 87.375 308.460938 C 87.492188 308.695312 87.652344 308.953125 87.84375 309.230469 C 88.042969 309.5 88.257812 309.757812 88.492188 309.992188 L 88.550781 310.050781 L 88.960938 310.34375 L 89.667969 310.992188 C 89.902344 311.304688 90.195312 311.617188 90.550781 311.929688 L 92.3125 313.457031 C 90.238281 313.5 88.214844 312.578125 86.261719 310.699219 C 85.121094 309.597656 83.695312 307.816406 81.96875 305.347656 C 77.738281 304.210938 74.191406 302.523438 71.328125 300.292969 C 69.761719 298.960938 68.742188 297.648438 68.273438 296.351562 " fill-opacity="1" fill-rule="evenodd"/><path fill="#f89a75" d="M 195 131.777344 C 194.921875 131.660156 194.742188 131.265625 194.46875 130.601562 L 194.058594 129.542969 L 196.820312 119.378906 C 197.445312 114.359375 197.660156 108.695312 197.464844 102.386719 C 197.464844 101.175781 197.410156 99.664062 197.289062 97.863281 C 205.910156 99.472656 214.160156 102.445312 222.035156 106.796875 C 222.390625 106.992188 223.367188 108.089844 224.976562 110.089844 C 225.917969 111.304688 227.09375 112.828125 228.5 114.675781 C 228.65625 115.574219 228.773438 116.492188 228.855469 117.433594 C 228.382812 123.390625 227.09375 127.917969 224.976562 131.015625 C 223.835938 132.699219 222.445312 133.953125 220.800781 134.773438 L 218.804688 135.128906 C 213.980469 135.714844 210.238281 135.949219 207.574219 135.835938 C 202.640625 135.558594 198.449219 134.207031 195 131.777344 Z M 84.316406 29.449219 L 88.199219 39.261719 C 88.394531 40.75 88.414062 42.984375 88.257812 45.960938 C 84.457031 40.632812 80.324219 36.207031 75.855469 32.679688 C 76.167969 31.109375 77.382812 30.679688 79.5 31.386719 C 81.734375 32.25 83.0625 32.113281 83.496094 30.972656 C 83.929688 30.503906 84.203125 29.996094 84.316406 29.449219 Z M 99.484375 24.980469 L 103.835938 45.726562 C 104.773438 48.15625 106.96875 53.152344 110.414062 60.714844 C 112.175781 63.886719 114.277344 67.242188 116.707031 70.765625 C 119.289062 74.449219 122.289062 78.425781 125.695312 82.695312 C 129.972656 88.105469 133.457031 92.671875 136.160156 96.394531 C 139.257812 100.546875 141.667969 104.011719 143.390625 106.796875 C 143.976562 107.738281 144.425781 108.445312 144.742188 108.914062 C 142.707031 111.148438 140.390625 112.828125 137.804688 113.96875 C 137.691406 113.96875 137.535156 114.003906 137.335938 114.089844 C 136.945312 114.242188 136.613281 114.398438 136.335938 114.554688 L 135.808594 114.730469 C 133.457031 115.476562 131.046875 115.769531 128.582031 115.613281 C 126.816406 113.613281 125.070312 111.382812 123.34375 108.914062 C 119.429688 103.386719 115.433594 96.53125 111.355469 88.339844 L 94.136719 55.71875 C 94.292969 50.980469 94.628906 46.746094 95.132812 43.023438 C 95.484375 39.8125 95.113281 34.851562 94.015625 28.152344 C 93.824219 27.132812 92.996094 24.566406 91.550781 20.453125 C 90.058594 16.261719 89.253906 13.632812 89.140625 12.578125 C 88.785156 10.5 88.726562 9.007812 88.960938 8.109375 L 89.3125 8.636719 C 90.960938 12.792969 93.703125 17.4375 97.542969 22.570312 C 98.128906 23.433594 98.777344 24.238281 99.484375 24.980469 Z M 161.496094 304.347656 L 160.140625 302.703125 L 166.136719 304.996094 L 164.902344 309.523438 C 163.804688 307.953125 162.671875 306.230469 161.496094 304.347656 Z M 107.535156 315.867188 L 107.476562 315.867188 C 105.753906 319.121094 105.617188 322.371094 107.066406 325.625 C 104.402344 324.21875 101.777344 322.394531 99.191406 320.15625 C 97.152344 318.4375 94.859375 316.199219 92.3125 313.457031 L 90.550781 311.929688 C 100.03125 313.65625 105.242188 314.65625 106.183594 314.925781 L 107.535156 315.867188 " fill-opacity="1" fill-rule="evenodd"/><path fill="#f27a5a" d="M 218.804688 135.128906 L 220.800781 134.773438 L 219.917969 135.597656 C 219.566406 135.402344 219.195312 135.246094 218.804688 135.128906 " fill-opacity="1" fill-rule="evenodd"/><path fill="#f9cd25" d="M 246.074219 252.507812 L 246.722656 255.449219 C 246.921875 256.539062 246.976562 257.542969 246.898438 258.441406 L 246.488281 258.796875 C 242.292969 262.085938 237.589844 264.109375 232.382812 264.851562 L 229.441406 265.085938 C 228.269531 265.121094 226.972656 265.105469 225.5625 265.027344 C 218.507812 264.714844 212.019531 263.261719 206.105469 260.679688 C 205.285156 259.339844 204.617188 258.109375 204.109375 256.972656 C 201.597656 251.644531 200.660156 246.410156 201.285156 241.28125 C 202.8125 234.226562 206.519531 226.058594 212.398438 216.769531 C 218.347656 207.484375 224.601562 203.035156 231.148438 203.429688 C 237.691406 203.820312 242.332031 204.445312 245.074219 205.308594 C 247.425781 206.441406 248.894531 207.050781 249.484375 207.128906 C 249.289062 209.871094 248.839844 212.988281 248.132812 216.476562 C 247.582031 219.140625 246.644531 223.121094 245.3125 228.410156 C 243.195312 238.164062 243.449219 246.199219 246.074219 252.507812 Z M 241.433594 159.460938 C 241.703125 159.894531 241.980469 160.285156 242.253906 160.636719 C 243.195312 162.125 244.3125 164.144531 245.605469 166.695312 C 246.074219 167.628906 246.976562 169.550781 248.308594 172.453125 C 248.03125 175.390625 248.839844 178.015625 250.71875 180.328125 C 252.324219 182.324219 253.578125 184.460938 254.480469 186.734375 C 255.148438 188.304688 255.539062 189.828125 255.652344 191.320312 C 251.582031 193.59375 248.839844 194.632812 247.425781 194.433594 C 245.703125 194.238281 243.328125 193.238281 240.316406 191.433594 C 237.222656 189.558594 234.789062 188.519531 233.023438 188.320312 C 229.773438 187.890625 226.402344 189.046875 222.917969 191.789062 C 219.507812 194.453125 215.234375 195.652344 210.101562 195.375 C 204.96875 195.023438 201.914062 192.417969 200.9375 187.558594 C 199.953125 182.582031 200.191406 178.15625 201.640625 174.273438 C 203.167969 170.277344 203.753906 166.398438 203.402344 162.632812 C 203.132812 159.933594 201.734375 157.207031 199.226562 154.464844 C 198.25 153.445312 197.152344 152.449219 195.941406 151.464844 C 196.683594 151.273438 195.546875 151.292969 192.527344 151.527344 C 194.292969 151.171875 195.625 150.664062 196.527344 149.996094 C 209.105469 156.859375 220.113281 159.03125 229.558594 156.523438 C 228.339844 154.015625 227.128906 151.722656 225.917969 149.648438 L 226.558594 150.058594 C 228.597656 151.351562 230.378906 152.425781 231.910156 153.289062 L 232.261719 154.289062 L 234.199219 154.113281 L 234.789062 154.289062 C 237.140625 155.035156 239.277344 156.703125 241.199219 159.285156 C 241.273438 159.324219 241.355469 159.382812 241.433594 159.460938 " fill-opacity="1" fill-rule="evenodd"/><path fill="#de8717" d="M 206.105469 260.679688 L 204.460938 259.910156 C 202.578125 258.972656 200.738281 257.914062 198.933594 256.738281 C 197.171875 255.605469 195.527344 254.386719 193.996094 253.097656 C 192.664062 251.957031 191.292969 250.722656 189.882812 249.390625 L 187.824219 247.160156 C 187.003906 246.175781 187.125 245.214844 188.179688 244.28125 C 188.609375 243.496094 189.613281 242.828125 191.179688 242.277344 C 195.957031 240.046875 198.308594 235.832031 198.230469 229.640625 C 198.230469 226 197.09375 221.082031 194.820312 214.890625 C 193.882812 212.539062 192.804688 210.089844 191.585938 207.542969 C 190.136719 204.679688 188.648438 201.582031 187.125 198.253906 C 183.242188 189.636719 180.792969 184.285156 179.773438 182.210938 C 184.4375 181.347656 188.121094 179.488281 190.824219 176.625 C 193.996094 173.292969 195.917969 168.589844 196.582031 162.519531 C 196.703125 161.8125 196.71875 161.128906 196.644531 160.460938 C 196.566406 157.402344 195.195312 154.429688 192.527344 151.527344 C 195.546875 151.292969 196.683594 151.273438 195.941406 151.464844 C 197.152344 152.449219 198.25 153.445312 199.226562 154.464844 C 201.734375 157.207031 203.132812 159.933594 203.402344 162.632812 C 203.753906 166.398438 203.167969 170.277344 201.640625 174.273438 C 200.191406 178.15625 199.953125 182.582031 200.9375 187.558594 C 201.914062 192.417969 204.96875 195.023438 210.101562 195.375 C 215.234375 195.652344 219.507812 194.453125 222.917969 191.789062 C 226.402344 189.046875 229.773438 187.890625 233.023438 188.320312 C 234.789062 188.519531 237.222656 189.558594 240.316406 191.433594 C 243.328125 193.238281 245.703125 194.238281 247.425781 194.433594 C 248.839844 194.632812 251.582031 193.59375 255.652344 191.320312 C 256.164062 196.179688 254.183594 200.492188 249.722656 204.25 C 249.679688 204.25 249.640625 204.289062 249.601562 204.367188 L 249.484375 207.128906 C 248.894531 207.050781 247.425781 206.441406 245.074219 205.308594 C 242.332031 204.445312 237.691406 203.820312 231.148438 203.429688 C 224.601562 203.035156 218.347656 207.484375 212.398438 216.769531 C 206.519531 226.058594 202.8125 234.226562 201.285156 241.28125 C 200.660156 246.410156 201.597656 251.644531 204.109375 256.972656 C 204.617188 258.109375 205.285156 259.339844 206.105469 260.679688 " fill-opacity="1" fill-rule="evenodd"/><path fill="#e0def2" d="M 132.808594 120.726562 L 129.515625 116.847656 C 129.28125 116.457031 128.96875 116.042969 128.582031 115.613281 C 131.046875 115.769531 133.457031 115.476562 135.808594 114.730469 L 136.335938 114.554688 C 136.613281 114.398438 136.945312 114.242188 137.335938 114.089844 C 137.535156 114.003906 137.691406 113.96875 137.804688 113.96875 C 138.160156 114.242188 138.609375 114.632812 139.160156 115.144531 C 142.957031 118.945312 144.882812 120.847656 144.917969 120.847656 C 146.527344 122.136719 148.347656 123.683594 150.382812 125.488281 C 152.972656 127.839844 154.8125 129.484375 155.910156 130.425781 C 158.222656 132.386719 161.671875 135.558594 166.253906 139.949219 L 166.667969 140.359375 C 170.9375 144.472656 174.089844 147.410156 176.128906 149.175781 C 179.34375 151.839844 182.847656 157.367188 186.652344 165.753906 C 188.570312 170.023438 189.960938 173.644531 190.824219 176.625 C 188.121094 179.488281 184.4375 181.347656 179.773438 182.210938 L 179.128906 180.914062 C 172.855469 167.90625 164.921875 156.054688 155.324219 145.355469 C 153.640625 143.476562 151.910156 141.628906 150.148438 139.832031 C 144.113281 133.597656 138.332031 127.230469 132.808594 120.726562 Z M 191.292969 258.207031 C 189.769531 256.953125 188.238281 255.605469 186.710938 254.152344 C 186.632812 254.035156 186.554688 253.957031 186.476562 253.917969 C 186.121094 253.523438 185.335938 252.761719 184.125 251.628906 C 184.003906 251.464844 183.867188 251.371094 183.710938 251.332031 C 182.734375 250.429688 181.886719 249.902344 181.1875 249.746094 C 180.832031 249.667969 180.441406 249.667969 180.011719 249.746094 C 179.5 249.824219 178.929688 249.996094 178.300781 250.273438 C 181.007812 247.332031 183.320312 245.335938 185.242188 244.28125 C 187.160156 243.179688 189.140625 242.515625 191.179688 242.277344 C 189.613281 242.828125 188.609375 243.496094 188.179688 244.28125 C 187.125 245.214844 187.003906 246.175781 187.824219 247.160156 L 189.882812 249.390625 C 191.292969 250.722656 192.664062 251.957031 193.996094 253.097656 C 195.527344 254.386719 197.171875 255.605469 198.933594 256.738281 C 200.738281 257.914062 202.578125 258.972656 204.460938 259.910156 L 206.105469 260.679688 C 212.019531 263.261719 218.507812 264.714844 225.5625 265.027344 C 226.972656 265.105469 228.269531 265.121094 229.441406 265.085938 L 232.382812 264.851562 C 237.589844 264.109375 242.292969 262.085938 246.488281 258.796875 L 246.898438 258.441406 C 246.976562 257.542969 246.921875 256.539062 246.722656 255.449219 L 246.074219 252.507812 C 247.683594 254.859375 248.503906 257.714844 248.546875 261.085938 C 248.230469 261.675781 247.898438 262.226562 247.542969 262.734375 C 244.683594 266.730469 240.078125 269.433594 233.730469 270.84375 C 233.066406 271 232.324219 271.136719 231.5 271.257812 L 229.203125 271.613281 C 227.792969 271.683594 226.324219 271.75 224.796875 271.785156 C 221.742188 271.667969 218.707031 271.292969 215.6875 270.671875 C 214.078125 270.28125 212.570312 269.847656 211.164062 269.375 C 209.988281 268.984375 209.027344 268.648438 208.285156 268.378906 C 202.480469 266.0625 196.820312 262.675781 191.292969 258.207031 Z M 266.292969 114.617188 C 268.449219 115.871094 270 117.476562 270.9375 119.433594 C 269.015625 122.882812 266.921875 126.960938 264.648438 131.660156 C 263.589844 133.894531 262.496094 136.261719 261.359375 138.773438 C 259.164062 143.554688 256.207031 150.136719 252.480469 158.519531 L 248.308594 172.453125 C 246.976562 169.550781 246.074219 167.628906 245.605469 166.695312 C 244.3125 164.144531 243.195312 162.125 242.253906 160.636719 C 241.980469 160.285156 241.703125 159.894531 241.433594 159.460938 L 242.253906 158.34375 C 246.992188 151.566406 250.8125 145.296875 253.714844 139.535156 C 255.203125 136.597656 256.535156 133.972656 257.710938 131.660156 C 260.339844 126.484375 262.121094 122.960938 263.0625 121.082031 C 264.589844 118.101562 265.664062 115.949219 266.292969 114.617188 Z M 234.789062 154.289062 L 234.199219 154.113281 L 232.261719 154.289062 L 231.910156 153.289062 L 237.199219 145.414062 L 234.789062 154.289062 " fill-opacity="1" fill-rule="evenodd"/><path fill="#ffffff" d="M 137.804688 113.96875 C 140.390625 112.828125 142.707031 111.148438 144.742188 108.914062 C 148.816406 112.914062 152.949219 116.828125 157.140625 120.667969 C 163.296875 126.269531 169.191406 131.523438 174.835938 136.421875 C 180.832031 141.628906 186.730469 146.667969 192.527344 151.527344 C 195.195312 154.429688 196.566406 157.402344 196.644531 160.460938 C 196.71875 161.128906 196.703125 161.8125 196.582031 162.519531 C 195.917969 168.589844 193.996094 173.292969 190.824219 176.625 C 189.960938 173.644531 188.570312 170.023438 186.652344 165.753906 C 182.847656 157.367188 179.34375 151.839844 176.128906 149.175781 C 174.089844 147.410156 170.9375 144.472656 166.667969 140.359375 L 166.253906 139.949219 C 161.671875 135.558594 158.222656 132.386719 155.910156 130.425781 C 154.8125 129.484375 152.972656 127.839844 150.382812 125.488281 C 148.347656 123.683594 146.527344 122.136719 144.917969 120.847656 C 144.882812 120.847656 142.957031 118.945312 139.160156 115.144531 C 138.609375 114.632812 138.160156 114.242188 137.804688 113.96875 Z M 196.527344 149.996094 C 196.917969 149.683594 197.230469 149.410156 197.464844 149.175781 C 208.714844 155.328125 218.546875 157.265625 226.972656 154.992188 C 225.328125 151.707031 223.777344 148.882812 222.332031 146.53125 C 223.230469 147.589844 224.425781 148.628906 225.917969 149.648438 C 227.128906 151.722656 228.339844 154.015625 229.558594 156.523438 C 220.113281 159.03125 209.105469 156.859375 196.527344 149.996094 " fill-opacity="1" fill-rule="evenodd"/><path fill="#f13ea7" d="M 194.46875 130.601562 C 194.742188 131.265625 194.921875 131.660156 195 131.777344 L 194.644531 132.308594 Z M 196.410156 142.710938 L 197.816406 144.945312 L 197.054688 144.53125 Z M 196.410156 142.710938 " fill-opacity="1" fill-rule="evenodd"/><g clip-path="url(#a3899d6346)"><path fill="#e7255a" d="M 169.722656 287.890625 C 169.371094 290.164062 168.921875 292.574219 168.371094 295.121094 C 163.902344 294.140625 159.144531 292.613281 154.089844 290.535156 C 149.855469 288.773438 146.09375 286.894531 142.800781 284.890625 C 142.53125 283.011719 143.171875 281.347656 144.742188 279.894531 C 145.996094 281.464844 146.898438 282.539062 147.445312 283.128906 C 148.582031 284.304688 149.855469 284.972656 151.265625 285.128906 C 153.304688 285.363281 159.007812 286.203125 168.371094 287.65625 Z M 117.117188 299.472656 C 107.636719 302.800781 95.800781 302.996094 81.613281 300.058594 C 76.640625 299.039062 72.191406 297.804688 68.273438 296.351562 C 67.53125 294.433594 67.859375 292.515625 69.269531 290.59375 C 70.960938 292.003906 72.152344 292.984375 72.855469 293.535156 C 74.386719 294.511719 75.894531 294.941406 77.382812 294.828125 C 79.027344 294.710938 85.335938 294.476562 96.308594 294.121094 C 104.109375 293.925781 110.4375 293.550781 115.296875 293.003906 C 115.296875 293.082031 115.390625 293.277344 115.589844 293.59375 L 115.648438 293.886719 L 115.703125 293.945312 C 115.703125 293.984375 115.746094 294.019531 115.824219 294.0625 C 116.488281 295.589844 116.921875 297.390625 117.117188 299.472656 " fill-opacity="1" fill-rule="evenodd"/></g><path fill="#bb2457" d="M 169.957031 286.773438 L 169.722656 287.890625 L 168.371094 287.65625 C 159.007812 286.203125 153.304688 285.363281 151.265625 285.128906 C 149.855469 284.972656 148.582031 284.304688 147.445312 283.128906 C 146.898438 282.539062 145.996094 281.464844 144.742188 279.894531 C 147.328125 278.640625 150.582031 279.191406 154.496094 281.542969 C 157.28125 283.230469 158.867188 284.164062 159.257812 284.363281 C 161.101562 285.269531 162.785156 285.71875 164.316406 285.71875 C 165.136719 285.953125 167.019531 286.304688 169.957031 286.773438 Z M 115.296875 293.003906 C 110.4375 293.550781 104.109375 293.925781 96.308594 294.121094 C 85.335938 294.476562 79.027344 294.710938 77.382812 294.828125 C 75.894531 294.941406 74.386719 294.511719 72.855469 293.535156 C 72.152344 292.984375 70.960938 292.003906 69.269531 290.59375 C 71.78125 288.675781 75.386719 288.597656 80.089844 290.359375 C 83.375 291.535156 85.320312 292.21875 85.90625 292.417969 C 88.023438 292.964844 89.925781 293.121094 91.605469 292.886719 C 93.175781 292.964844 97.152344 292.84375 103.539062 292.53125 C 108.476562 292.296875 112.394531 292.453125 115.296875 293.003906 " fill-opacity="1" fill-rule="evenodd"/><path fill="#ecf0f9" d="M 157.730469 298.703125 C 157.382812 297.839844 157.203125 297 157.203125 296.179688 C 157.359375 296.214844 157.496094 296.257812 157.617188 296.296875 L 157.730469 296.296875 L 158.789062 296.59375 C 159.023438 296.628906 159.414062 296.730469 159.964844 296.886719 L 161.203125 297.292969 C 161.28125 297.292969 161.339844 297.292969 161.375 297.292969 L 161.730469 297.527344 L 162.082031 297.589844 L 162.136719 297.589844 C 162.179688 297.628906 162.222656 297.648438 162.257812 297.648438 C 163.667969 298.078125 165.371094 298.648438 167.375 299.351562 C 167.375 299.394531 167.390625 299.410156 167.429688 299.410156 L 167.019531 301.347656 C 166.976562 301.3125 166.941406 301.292969 166.898438 301.292969 C 166.785156 301.253906 166.683594 301.234375 166.605469 301.234375 C 165.078125 300.84375 163.042969 300.273438 160.496094 299.53125 C 160.0625 299.410156 159.632812 299.292969 159.199219 299.175781 C 158.730469 299.015625 158.238281 298.859375 157.730469 298.703125 Z M 114.824219 308.988281 C 114.746094 308.988281 114.667969 309.007812 114.589844 309.050781 L 114.355469 309.109375 C 113.84375 309.386719 113.375 309.660156 112.945312 309.929688 C 112.824219 310.007812 112.710938 310.085938 112.589844 310.164062 L 111.414062 310.992188 L 111.355469 311.105469 C 110.964844 311.425781 110.550781 311.8125 110.121094 312.28125 L 109.003906 312.046875 C 103.910156 310.992188 101.148438 310.441406 100.714844 310.40625 L 92.3125 310.164062 C 91.804688 310.128906 90.53125 310.070312 88.492188 309.992188 C 88.257812 309.757812 88.042969 309.5 87.84375 309.230469 C 87.652344 308.953125 87.492188 308.695312 87.375 308.460938 C 87.140625 308.191406 86.945312 307.898438 86.789062 307.582031 C 86.398438 306.878906 86.121094 306.207031 85.964844 305.582031 C 88.550781 305.582031 93.367188 306.1875 100.421875 307.40625 C 106.417969 308.382812 111.179688 308.582031 114.707031 307.992188 L 114.824219 308.988281 " fill-opacity="1" fill-rule="evenodd"/><path fill="#204272" d="M 231.5 271.257812 C 231.105469 280.429688 226.914062 290.066406 218.917969 300.171875 C 217.46875 288.105469 214.886719 277.839844 211.164062 269.375 C 212.570312 269.847656 214.078125 270.28125 215.6875 270.671875 C 218.707031 271.292969 221.742188 271.667969 224.796875 271.785156 C 226.324219 271.75 227.792969 271.683594 229.203125 271.613281 L 231.5 271.257812 " fill-opacity="1" fill-rule="evenodd"/></svg>