<svg xmlns="http://www.w3.org/2000/svg" xmlns:xlink="http://www.w3.org/1999/xlink" width="500" zoomAndPan="magnify" viewBox="0 0 375 374.999991" height="500" preserveAspectRatio="xMidYMid meet" version="1.0"><rect x="-37.5" width="450" fill="#ffffff" y="-37.499999" height="449.999989" fill-opacity="1"/><rect x="-37.5" width="450" fill="#ffffff" y="-37.499999" height="449.999989" fill-opacity="1"/><rect x="-37.5" width="450" fill="#ffffff" y="-37.499999" height="449.999989" fill-opacity="1"/><path fill="#dfeef7" d="M 369.058594 280.910156 C 373.011719 309.957031 360.078125 338.007812 337.148438 354.21875 C 334.316406 356.21875 330.359375 355.285156 328.601562 352.296875 L 328.140625 351.511719 C 326.558594 348.816406 327.339844 345.390625 329.886719 343.582031 C 348.847656 330.121094 359.558594 306.890625 356.339844 282.796875 C 355.925781 279.703125 357.910156 276.808594 360.953125 276.132812 L 361.832031 275.941406 C 365.21875 275.191406 368.589844 277.46875 369.058594 280.910156 " fill-opacity="1" fill-rule="nonzero"/><path fill="#dfeef7" d="M 343.878906 286.875 C 345.398438 304.414062 337.769531 321.144531 324.457031 331.609375 C 321.566406 333.878906 317.355469 333.179688 315.488281 330.011719 L 315.054688 329.273438 C 313.496094 326.628906 314.246094 323.320312 316.652344 321.414062 C 326.5625 313.53125 332.21875 301.042969 331.066406 287.921875 C 330.808594 284.976562 332.90625 282.332031 335.789062 281.695312 L 336.605469 281.515625 C 340.148438 280.734375 343.574219 283.257812 343.878906 286.875 " fill-opacity="1" fill-rule="nonzero"/><path fill="#dfeef7" d="M 2.675781 74.59375 C 10.375 46.304688 33.238281 25.539062 60.675781 19.578125 C 64.066406 18.84375 67.34375 21.246094 67.792969 24.683594 L 67.910156 25.589844 C 68.320312 28.6875 66.261719 31.53125 63.210938 32.203125 C 40.5 37.1875 21.566406 54.386719 15.121094 77.828125 C 14.296875 80.832031 11.339844 82.722656 8.273438 82.15625 L 7.390625 81.992188 C 3.976562 81.355469 1.761719 77.941406 2.675781 74.59375 " fill-opacity="1" fill-rule="nonzero"/><path fill="#dfeef7" d="M 28.179688 78.9375 C 33.640625 62.199219 47.191406 49.78125 63.53125 45.351562 C 67.078125 44.390625 70.679688 46.679688 71.167969 50.324219 L 71.277344 51.179688 C 71.675781 54.214844 69.691406 56.964844 66.738281 57.785156 C 54.53125 61.167969 44.453125 70.453125 40.386719 82.984375 C 39.476562 85.792969 36.511719 87.410156 33.605469 86.867188 L 32.785156 86.714844 C 29.21875 86.054688 27.054688 82.390625 28.179688 78.9375 " fill-opacity="1" fill-rule="nonzero"/><path fill="#fec108" d="M 333.484375 148.800781 L 311.269531 287.925781 C 308.511719 305.199219 292.273438 316.976562 275 314.214844 L 59.761719 279.824219 C 42.484375 277.066406 30.722656 260.8125 33.484375 243.542969 L 55.699219 104.414062 C 56.839844 97.25 60.296875 91.042969 65.1875 86.421875 C 72.089844 79.875 81.851562 76.503906 91.96875 78.125 L 307.203125 112.515625 C 317.320312 114.128906 325.546875 120.375 330.070312 128.75 C 333.277344 134.660156 334.628906 141.636719 333.484375 148.800781 " fill-opacity="1" fill-rule="nonzero"/><path fill="#feb60a" d="M 65.1875 86.421875 L 182.125 238.621094 L 330.070312 128.75 Z M 65.1875 86.421875 " fill-opacity="1" fill-rule="nonzero"/><path fill="#fdac01" d="M 36.898438 263.589844 L 186.675781 176.171875 L 301.78125 305.914062 C 294.875 312.464844 285.117188 315.835938 275 314.214844 L 59.761719 279.824219 C 49.640625 278.207031 41.417969 271.964844 36.898438 263.589844 " fill-opacity="1" fill-rule="nonzero"/><path fill="#ffd54f" d="M 330.070312 128.75 L 180.289062 216.167969 L 65.1875 86.421875 C 72.089844 79.875 81.851562 76.503906 91.96875 78.125 L 307.203125 112.515625 C 317.320312 114.128906 325.546875 120.375 330.070312 128.75 " fill-opacity="1" fill-rule="nonzero"/><path fill="#f5554a" d="M 372.730469 105.878906 C 372.730469 71.796875 345.113281 44.167969 311.042969 44.167969 C 276.972656 44.167969 249.347656 71.796875 249.347656 105.878906 C 249.347656 139.960938 276.972656 167.59375 311.042969 167.59375 C 345.113281 167.59375 372.730469 139.960938 372.730469 105.878906 " fill-opacity="1" fill-rule="nonzero"/><path fill="#ffffff" d="M 307.621094 95.160156 C 306.636719 96.050781 305.570312 96.75 304.410156 97.253906 C 303.246094 97.761719 301.882812 98.015625 300.304688 98.015625 C 299.414062 98.015625 298.589844 97.84375 297.832031 97.503906 C 297.070312 97.160156 296.425781 96.699219 295.890625 96.121094 C 295.355469 95.539062 294.933594 94.878906 294.621094 94.136719 C 294.308594 93.390625 294.152344 92.601562 294.152344 91.773438 C 294.152344 90.9375 294.289062 90.21875 294.554688 89.605469 C 294.824219 88.996094 295.191406 88.472656 295.667969 88.023438 C 296.140625 87.578125 296.691406 87.175781 297.316406 86.820312 C 297.941406 86.460938 298.613281 86.089844 299.328125 85.703125 C 300.808594 84.722656 302.140625 83.726562 303.316406 82.714844 C 304.492188 81.703125 305.539062 80.757812 306.460938 79.882812 C 307.382812 79.003906 308.183594 78.253906 308.867188 77.628906 C 309.550781 77.007812 310.148438 76.574219 310.652344 76.335938 C 310.949219 76.1875 311.222656 76.058594 311.476562 75.957031 C 311.730469 75.855469 311.988281 75.78125 312.253906 75.734375 C 312.527344 75.691406 312.820312 75.660156 313.148438 75.644531 C 313.476562 75.628906 313.890625 75.625 314.394531 75.625 C 315.941406 75.625 317.167969 75.933594 318.078125 76.558594 C 318.980469 77.183594 319.664062 77.992188 320.125 78.992188 C 320.589844 79.984375 320.875 81.109375 320.996094 82.359375 C 321.113281 83.609375 321.171875 84.875 321.171875 86.148438 L 321.171875 127.542969 C 321.171875 128.851562 321.113281 130.136719 320.996094 131.402344 C 320.875 132.667969 320.589844 133.789062 320.125 134.769531 C 319.664062 135.753906 318.980469 136.546875 318.078125 137.15625 C 317.167969 137.769531 315.941406 138.070312 314.394531 138.070312 C 312.820312 138.070312 311.589844 137.769531 310.699219 137.15625 C 309.804688 136.546875 309.128906 135.753906 308.667969 134.769531 C 308.203125 133.789062 307.914062 132.667969 307.796875 131.402344 C 307.675781 130.136719 307.621094 128.851562 307.621094 127.542969 L 307.621094 95.160156 " fill-opacity="1" fill-rule="nonzero"/></svg>